<mxfile host="65bd71144e" modified="2020-10-13T12:16:30.019Z" agent="5.0 (X11; Linux x86_64) AppleWebKit/537.36 (KHTML, like Gecko) Code/1.50.0 Chrome/83.0.4103.122 Electron/9.2.1 Safari/537.36" etag="R1DGdticonVNxAo1dZGq" version="13.6.5">
    <diagram id="aU-m6WnBvIzQqiZowmeF" name="ページ1">
        <mxGraphModel dx="502" dy="810" grid="1" gridSize="10" guides="1" tooltips="1" connect="1" arrows="1" fold="1" page="1" pageScale="1" pageWidth="1169" pageHeight="827" math="0" shadow="0">
            <root>
                <mxCell id="0"/>
                <mxCell id="1" parent="0"/>
                <mxCell id="13" value="0" style="edgeStyle=none;rounded=0;orthogonalLoop=1;jettySize=auto;html=1;fontSize=24;" edge="1" parent="1" source="2" target="3">
                    <mxGeometry relative="1" as="geometry"/>
                </mxCell>
                <mxCell id="2" value="q&lt;sub&gt;2&lt;/sub&gt;&lt;sup&gt;'&lt;/sup&gt;" style="ellipse;whiteSpace=wrap;html=1;aspect=fixed;fontSize=24;" vertex="1" parent="1">
                    <mxGeometry x="350" y="480" width="80" height="80" as="geometry"/>
                </mxCell>
                <mxCell id="8" style="edgeStyle=none;rounded=0;orthogonalLoop=1;jettySize=auto;html=1;exitX=0;exitY=0.5;exitDx=0;exitDy=0;entryX=1;entryY=0;entryDx=0;entryDy=0;fontSize=24;" edge="1" parent="1" source="3" target="4">
                    <mxGeometry relative="1" as="geometry"/>
                </mxCell>
                <mxCell id="3" value="q&lt;sub&gt;1&lt;/sub&gt;&lt;sup&gt;'&lt;/sup&gt;" style="ellipse;whiteSpace=wrap;html=1;aspect=fixed;fontSize=24;" vertex="1" parent="1">
                    <mxGeometry x="350" y="280" width="80" height="80" as="geometry"/>
                </mxCell>
                <mxCell id="7" value="1" style="edgeStyle=none;rounded=0;orthogonalLoop=1;jettySize=auto;html=1;exitX=1;exitY=0;exitDx=0;exitDy=0;entryX=0;entryY=0.5;entryDx=0;entryDy=0;fontSize=24;" edge="1" parent="1" source="4" target="3">
                    <mxGeometry relative="1" as="geometry"/>
                </mxCell>
                <mxCell id="14" value="0" style="edgeStyle=none;rounded=0;orthogonalLoop=1;jettySize=auto;html=1;exitX=1;exitY=1;exitDx=0;exitDy=0;entryX=0;entryY=0.5;entryDx=0;entryDy=0;fontSize=24;" edge="1" parent="1" source="4" target="2">
                    <mxGeometry relative="1" as="geometry"/>
                </mxCell>
                <mxCell id="4" value="q&lt;sub&gt;0&lt;/sub&gt;&lt;sup&gt;'&lt;/sup&gt;" style="ellipse;shape=doubleEllipse;whiteSpace=wrap;html=1;aspect=fixed;fontSize=24;" vertex="1" parent="1">
                    <mxGeometry x="160" y="380" width="80" height="80" as="geometry"/>
                </mxCell>
                <mxCell id="10" value="0" style="edgeStyle=segmentEdgeStyle;endArrow=classic;html=1;exitX=0;exitY=0.5;exitDx=0;exitDy=0;entryX=0;entryY=0;entryDx=0;entryDy=0;fontSize=24;" edge="1" parent="1" source="4" target="4">
                    <mxGeometry width="50" height="50" relative="1" as="geometry">
                        <mxPoint x="70" y="390" as="sourcePoint"/>
                        <mxPoint x="120" y="350" as="targetPoint"/>
                        <Array as="points">
                            <mxPoint x="130" y="420"/>
                            <mxPoint x="130" y="350"/>
                            <mxPoint x="172" y="350"/>
                        </Array>
                    </mxGeometry>
                </mxCell>
                <mxCell id="11" value="1" style="edgeStyle=segmentEdgeStyle;endArrow=classic;html=1;entryX=1;entryY=0;entryDx=0;entryDy=0;fontSize=24;" edge="1" parent="1" source="2" target="2">
                    <mxGeometry width="50" height="50" relative="1" as="geometry">
                        <mxPoint x="450" y="520" as="sourcePoint"/>
                        <mxPoint x="460" y="470" as="targetPoint"/>
                        <Array as="points">
                            <mxPoint x="460" y="520"/>
                            <mxPoint x="460" y="450"/>
                            <mxPoint x="418" y="450"/>
                        </Array>
                    </mxGeometry>
                </mxCell>
                <mxCell id="15" style="edgeStyle=none;rounded=0;orthogonalLoop=1;jettySize=auto;html=1;fontSize=24;" edge="1" parent="1" source="12" target="2">
                    <mxGeometry relative="1" as="geometry"/>
                </mxCell>
                <mxCell id="12" value="start" style="text;html=1;align=center;verticalAlign=middle;resizable=0;points=[];autosize=1;fontSize=24;" vertex="1" parent="1">
                    <mxGeometry x="360" y="605" width="60" height="30" as="geometry"/>
                </mxCell>
            </root>
        </mxGraphModel>
    </diagram>
</mxfile>
